HIERARCHY
ROOT hip
{
  OFFSET 19.9228 63.5952 58.4804
  CHANNELS 6 Xposition Yposition Zposition Zrotation Xrotation Yrotation
  JOINT abdomen
  {
    OFFSET 0 20.6881 -0.73152
    CHANNELS 3 Zrotation Xrotation Yrotation
    JOINT chest
    {
      OFFSET 0 11.7043 -0.48768
      CHANNELS 3 Zrotation Xrotation Yrotation
      JOINT neck
      {
        OFFSET 0 22.1894 -2.19456
        CHANNELS 3 Zrotation Xrotation Yrotation
        JOINT head
        {
          OFFSET -0.24384 7.07133 1.2192
          CHANNELS 3 Zrotation Xrotation Yrotation
          JOINT leftEye
          {
            OFFSET 4.14528 8.04674 8.04672
            CHANNELS 3 Zrotation Xrotation Yrotation
            End Site
            {
              OFFSET 1 0 0
            }
          }
          JOINT rightEye
          {
            OFFSET -3.6576 8.04674 8.04672
            CHANNELS 3 Zrotation Xrotation Yrotation
            End Site
            {
              OFFSET 1 0 0
            }
          }
        }
      }
      JOINT rCollar
      {
        OFFSET -2.68224 19.2634 -4.8768
        CHANNELS 3 Zrotation Xrotation Yrotation
        JOINT rShldr
        {
          OFFSET -8.77824 -1.95073 1.46304
          CHANNELS 3 Zrotation Xrotation Yrotation
          JOINT rForeArm
          {
            OFFSET -28.1742 -1.7115 0.48768
            CHANNELS 3 Zrotation Xrotation Yrotation
            JOINT rHand
            {
              OFFSET -22.5879 0.773209 7.07136
              CHANNELS 3 Zrotation Xrotation Yrotation
              JOINT rThumb1
              {
                OFFSET -1.2192 -0.487915 3.41376
                CHANNELS 3 Zrotation Xrotation Yrotation
                JOINT rThumb2
                {
                  OFFSET -3.37035 -0.52449 3.41376
                  CHANNELS 3 Zrotation Xrotation Yrotation
                  End Site
                  {
                    OFFSET -1.78271 -1.18214 1.43049
                  }
                }
              }
              JOINT rIndex1
              {
                OFFSET -7.75947 0.938293 5.60832
                CHANNELS 3 Zrotation Xrotation Yrotation
                JOINT rIndex2
                {
                  OFFSET -2.54057 -0.884171 1.56538
                  CHANNELS 3 Zrotation Xrotation Yrotation
                  End Site
                  {
                    OFFSET -1.62519 -0.234802 1.16502
                  }
                }
              }
              JOINT rMid1
              {
                OFFSET -8.24714 1.18213 3.41376
                CHANNELS 3 Zrotation Xrotation Yrotation
                JOINT rMid2
                {
                  OFFSET -3.10165 -0.590103 1.0647
                  CHANNELS 3 Zrotation Xrotation Yrotation
                  End Site
                  {
                    OFFSET -2.48547 -0.328903 0.83742
                  }
                }
              }
              JOINT rRing1
              {
                OFFSET -8.82822 0.546677 1.51678
                CHANNELS 3 Zrotation Xrotation Yrotation
                JOINT rRing2
                {
                  OFFSET -2.60934 -0.819778 -0.0198488
                  CHANNELS 3 Zrotation Xrotation Yrotation
                  End Site
                  {
                    OFFSET -2.33842 -0.294052 0.168128
                  }
                }
              }
              JOINT rPinky1
              {
                OFFSET -8.27202 -0.0477905 -0.4584
                CHANNELS 3 Zrotation Xrotation Yrotation
                JOINT rPinky2
                {
                  OFFSET -1.82734 -0.647385 -0.700984
                  CHANNELS 3 Zrotation Xrotation Yrotation
                  End Site
                  {
                    OFFSET -1.69225 -0.51767 -0.607171
                  }
                }
              }
            }
          }
        }
      }
      JOINT lCollar
      {
        OFFSET 2.68224 19.2634 -4.8768
        CHANNELS 3 Zrotation Xrotation Yrotation
        JOINT lShldr
        {
          OFFSET 8.77824 -1.95073 1.46304
          CHANNELS 3 Zrotation Xrotation Yrotation
          JOINT lForeArm
          {
            OFFSET 28.1742 -1.7115 0.48768
            CHANNELS 3 Zrotation Xrotation Yrotation
            JOINT lHand
            {
              OFFSET 22.5879 0.773209 7.07136
              CHANNELS 3 Zrotation Xrotation Yrotation
              JOINT lThumb1
              {
                OFFSET 1.2192 -0.487915 3.41376
                CHANNELS 3 Zrotation Xrotation Yrotation
                JOINT lThumb2
                {
                  OFFSET 3.37035 -0.52449 3.41376
                  CHANNELS 3 Zrotation Xrotation Yrotation
                  End Site
                  {
                    OFFSET 1.78271 -1.18214 1.43049
                  }
                }
              }
              JOINT lIndex1
              {
                OFFSET 7.75947 0.938293 5.60832
                CHANNELS 3 Zrotation Xrotation Yrotation
                JOINT lIndex2
                {
                  OFFSET 2.54057 -0.884171 1.56538
                  CHANNELS 3 Zrotation Xrotation Yrotation
                  End Site
                  {
                    OFFSET 1.62519 -0.234802 1.16502
                  }
                }
              }
              JOINT lMid1
              {
                OFFSET 8.24714 1.18213 3.41376
                CHANNELS 3 Zrotation Xrotation Yrotation
                JOINT lMid2
                {
                  OFFSET 3.10165 -0.590103 1.0647
                  CHANNELS 3 Zrotation Xrotation Yrotation
                  End Site
                  {
                    OFFSET 2.48547 -0.328903 0.83742
                  }
                }
              }
              JOINT lRing1
              {
                OFFSET 8.82822 0.546677 1.51678
                CHANNELS 3 Zrotation Xrotation Yrotation
                JOINT lRing2
                {
                  OFFSET 2.60934 -0.819778 -0.0198488
                  CHANNELS 3 Zrotation Xrotation Yrotation
                  End Site
                  {
                    OFFSET 2.33842 -0.294052 0.168128
                  }
                }
              }
              JOINT lPinky1
              {
                OFFSET 8.27202 -0.0477905 -0.4584
                CHANNELS 3 Zrotation Xrotation Yrotation
                JOINT lPinky2
                {
                  OFFSET 1.82734 -0.647385 -0.700984
                  CHANNELS 3 Zrotation Xrotation Yrotation
                  End Site
                  {
                    OFFSET 1.69225 -0.51767 -0.607171
                  }
                }
              }
            }
          }
        }
      }
    }
  }
  JOINT rButtock
  {
    OFFSET -8.77824 4.35084 1.2192
    CHANNELS 3 Zrotation Xrotation Yrotation
    JOINT rThigh
    {
      OFFSET 0 -1.70687 -2.19456
      CHANNELS 3 Zrotation Xrotation Yrotation
      JOINT rShin
      {
        OFFSET 0 -36.8199 0.73152
        CHANNELS 3 Zrotation Xrotation Yrotation
        JOINT rFoot
        {
          OFFSET 0.73152 -45.1104 -5.12064
          CHANNELS 3 Zrotation Xrotation Yrotation
          End Site
          {
            OFFSET -1.1221 -3.69964 12.103
          }
        }
      }
    }
  }
  JOINT lButtock
  {
    OFFSET 8.77824 4.35084 1.2192
    CHANNELS 3 Zrotation Xrotation Yrotation
    JOINT lThigh
    {
      OFFSET 0 -1.70687 -2.19456
      CHANNELS 3 Zrotation Xrotation Yrotation
      JOINT lShin
      {
        OFFSET 0 -36.8199 0.73152
        CHANNELS 3 Zrotation Xrotation Yrotation
        JOINT lFoot
        {
          OFFSET -0.73152 -45.1104 -5.12064
          CHANNELS 3 Zrotation Xrotation Yrotation
          End Site
          {
            OFFSET 1.1221 -3.69964 12.103
          }
        }
      }
    }
  }
}
MOTION
Frames:	4
Frame Time:	0.00833333
20.5661 33.6606 24.3383 2.49963 0.00857091 -0.0474173 -3.29143 -0.00199266 -0.0897056 -0.910441 0.0108431 -0.157557 3.29612e-014 7.95139e-016 -7.95139e-016 9.85708e-014 1.59028e-014 -2.43977e-015 -0 0 0 -0 0 0 1.63993e-014 6.75557e-017 -2.48481e-016 3.47523e-013 1.59649e-015 -6.36111e-015 5.96389e-012 -1.73141e-012 -1.94014e-013 6.83487e-011 2.07094e-012 -1.53939e-012 1.61208e-010 7.35815e-013 -3.77214e-012 2.7839e-010 1.26904e-012 -6.5424e-012 1.61211e-010 7.34708e-013 -3.78486e-012 7.73091 5.47488 0.417314 1.61206e-010 7.34708e-013 -3.77532e-012 2.90554 0.965183 0.102902 1.61215e-010 7.35404e-013 -3.78486e-012 10.2786 0.731801 0.0259123 1.61201e-010 7.39081e-013 -3.78486e-012 2.22167 -0.733487 -0.20892 1.63018e-014 6.87205e-017 -4.47265e-016 3.44449e-013 1.29831e-015 -8.34896e-015 5.9788e-012 1.8322e-012 -2.3218e-013 6.83255e-011 -1.49732e-012 -1.51712e-012 1.61197e-010 7.32398e-013 -3.80712e-012 2.78393e-010 1.26904e-012 -6.54797e-012 1.61192e-010 7.32323e-013 -3.78804e-012 -7.73091 5.47488 -0.417314 1.61198e-010 7.31726e-013 -3.80076e-012 -2.90554 0.965183 -0.102902 1.6119e-010 7.31925e-013 -3.79361e-012 -10.2786 0.731801 -0.0259123 1.61202e-010 7.37491e-013 -3.78486e-012 -2.22167 -0.733487 0.20892 -2.03217e-016 0 -3.88251e-019 -2.14461 -1.93292 0.018435 -0.00777928 -2.07877 -0.0633833 -0.351899 4.00071 0.116682 2.03217e-016 0 3.88251e-019 -2.88491 -9.6767 0.339323 -0.00999543 11.9455 -0.261322 0.462878 -2.27968 -0.00637557 
18.9087 35.0113 31.8827 1.87758 0.923539 -0.723029 -2.71527 -6.15548 -0.172107 -0.870225 3.82261 -0.0538322 1.23099 -1.51881 0.790904 1.0365 5.13587 0.925849 -0 0 0 -0 0 0 3.24559e-014 2.92951e-014 2.41729e-014 18.9553 7.14265 1.58271 -15.6119 -12.9076 14.6899 0.0307252 3.89191 0.542432 -1.89447e-010 1.70308e-009 -1.8928e-011 -3.2723e-010 2.96152e-009 -2.95469e-011 -1.89443e-010 1.70308e-009 -1.89406e-011 7.73091 5.47488 0.417314 -1.89447e-010 1.70308e-009 -1.89301e-011 2.90554 0.965183 0.102902 -1.89438e-010 1.70308e-009 -1.89375e-011 10.2786 0.731801 0.0259123 -1.89454e-010 1.70309e-009 -1.89363e-011 2.22167 -0.733487 -0.20892 3.23842e-014 2.92963e-014 2.39582e-014 -19.338 5.84722 -1.58478 15.0327 -12.2634 -14.5463 -0.013134 -2.54488 0.35639 8.25635e-011 2.41926e-009 -3.72828e-010 1.4541e-010 4.1926e-009 -6.44209e-010 8.2557e-011 2.41926e-009 -3.72808e-010 -7.73091 5.47488 -0.417314 8.25644e-011 2.41926e-009 -3.72824e-010 -2.90554 0.965183 -0.102902 8.25544e-011 2.41926e-009 -3.72817e-010 -10.2786 0.731801 -0.0259123 8.25675e-011 2.41926e-009 -3.72814e-010 -2.22167 -0.733487 0.20892 -2.03217e-016 0 -3.88251e-019 -3.58252 -23.9401 -2.75885 0.360022 21.983 0.23645 0.048405 2.35786 -1.14964 2.03217e-016 0 3.88251e-019 -0.480512 -29.6675 3.87219 -0.183559 30.7725 -0.538016 0.16697 -1.00216 -0.72003 
18.8955 35.0243 31.9019 1.24855 1.89012 -1.44056 -2.13271 -12.6778 -0.262684 -0.841206 7.85409 0.0570183 2.58279 -3.11716 1.62898 1.94435 10.567 1.92926 -0 0 0 -0 0 0 5.01786e-014 6.18513e-014 5.20288e-014 38.5581 14.6727 3.33708 -24.6996 -23.6319 32.443 -0.017723 8.01979 1.12631 -5.77111e-010 3.5515e-009 -4.29892e-011 -9.96848e-010 6.1766e-009 -6.76069e-011 -5.77106e-010 3.5515e-009 -4.30017e-011 7.73091 5.47488 0.417314 -5.7711e-010 3.55149e-009 -4.29902e-011 2.90554 0.965183 0.102902 -5.77101e-010 3.55149e-009 -4.29952e-011 10.2786 0.731801 0.0259123 -5.77118e-010 3.5515e-009 -4.29927e-011 2.22167 -0.733487 -0.20892 5.01364e-014 6.18525e-014 5.17958e-014 -39.4264 12.0152 -3.31208 23.9932 -22.5158 -31.9059 0.00751691 -5.22231 0.733732 -6.44895e-012 5.11935e-009 -7.86369e-010 -5.16796e-012 8.87186e-009 -1.35879e-009 -6.45677e-012 5.11934e-009 -7.86347e-010 -7.73091 5.47488 -0.417314 -6.44796e-012 5.11934e-009 -7.86366e-010 -2.90554 0.965183 -0.102902 -6.45952e-012 5.11934e-009 -7.86359e-010 -10.2786 0.731801 -0.0259123 -6.44534e-012 5.11935e-009 -7.86362e-010 -2.22167 -0.733487 0.20892 -2.03217e-016 0 -3.88251e-019 -8.40894 -47.003 -7.64378 0.36504 47.4211 0.765551 0.392568 0.619977 -2.4859 2.03217e-016 0 3.88251e-019 6.18718 -50.4559 10.354 -0.0451457 50.6747 -1.07431 -0.111148 0.346139 -1.47609 
18.884 35.0418 31.9201 0.69827 2.75189 -2.07637 -1.61909 -18.4622 -0.352051 -0.831675 11.4461 0.1571 3.81906 -4.55294 2.37939 2.59602 15.3912 2.86938 -0 0 0 -0 0 0 6.4569e-014 8.77502e-014 7.30157e-014 55.6094 21.36 5.05965 -27.1532 -28.0656 50.5246 -0.132838 11.6715 1.65783 -8.90756e-010 5.10778e-009 -4.92397e-011 -1.53847e-009 8.88203e-009 -7.5556e-011 -8.9075e-010 5.10778e-009 -4.92522e-011 7.73091 5.47488 0.417314 -8.90755e-010 5.10777e-009 -4.92398e-011 2.90554 0.965183 0.102902 -8.90746e-010 5.10776e-009 -4.92428e-011 10.2786 0.731801 0.0259123 -8.90763e-010 5.10778e-009 -4.92391e-011 2.22167 -0.733487 -0.20892 6.4549e-014 8.77515e-014 7.27692e-014 -57.0048 17.4866 -4.95933 26.7067 -26.9185 -49.415 0.0562929 -7.63346 1.07767 -7.47043e-011 7.25631e-009 -1.11087e-009 -1.20554e-010 1.25753e-008 -1.91953e-009 -7.47133e-011 7.25631e-009 -1.11085e-009 -7.73091 5.47488 -0.417314 -7.47033e-011 7.2563e-009 -1.11087e-009 -2.90554 0.965183 -0.102902 -7.47162e-011 7.2563e-009 -1.11086e-009 -10.2786 0.731801 -0.0259123 -7.47011e-011 7.25631e-009 -1.11087e-009 -2.22167 -0.733487 0.20892 -2.03217e-016 0 -3.88251e-019 -21.2482 -66.8124 -19.6294 -0.810223 70.0923 2.30435 0.631373 -0.924524 -3.67928 2.03217e-016 0 3.88251e-019 22.6945 -67.8099 25.6891 0.965008 68.4127 -2.38011 -0.329388 1.55155 -2.14781 
